name rise34.3697peak60.0498fall86.3158.mot
datacolumns 19
datarows 14
range 23.27824800000000 23.29993000000000
endheader
time	ground_force1_vx	ground_force1_vy	ground_force1_vz	ground_force1_px	ground_force1_py	ground_force1_pz	ground_force2_vx	ground_force2_vy	ground_force2_vz	ground_force2_px	ground_force2_py	ground_force2_pz	ground_torque1_x	ground_torque1_y	ground_torque1_z	ground_torque2_x	ground_torque2_y	ground_torque2_z	
23.27824800000000	-45.54061200000000	813.73877700000003	66.69094900000000	0.15869900000000	0.00000000000000	0.14114700000000	-9.40518900000000	27.69161900000000	5.93438600000000	0.38777900000000	0.00000000000000	-0.05761600000000	0.00000000000000	31.07203500000000	0.00000000000000	0.00000000000000	3.85982500000000	0.00000000000000	
23.27993100000000	-45.56952400000000	810.37056099999995	66.46127900000000	0.15805600000000	0.00000000000000	0.14105700000000	-10.98540500000000	34.00021900000000	7.05556500000000	0.39125300000000	0.00000000000000	-0.05829300000000	0.00000000000000	30.90917700000000	0.00000000000000	0.00000000000000	4.63241900000000	0.00000000000000	
23.28157900000000	-45.60906400000000	806.87385900000004	66.20449400000000	0.15741700000000	0.00000000000000	0.14096100000000	-12.46261300000000	40.54896700000000	8.14990400000000	0.39448600000000	0.00000000000000	-0.05891800000000	0.00000000000000	30.74392800000000	0.00000000000000	0.00000000000000	5.40020200000000	0.00000000000000	
23.28324200000000	-45.66004600000000	803.25112600000000	65.92060600000001	0.15678200000000	0.00000000000000	0.14085800000000	-13.78326400000000	47.21338100000000	9.18484200000000	0.39750700000000	0.00000000000000	-0.05950100000000	0.00000000000000	30.57654900000000	0.00000000000000	0.00000000000000	6.14169200000000	0.00000000000000	
23.28491400000000	-45.72324800000000	799.50484700000004	65.60967300000000	0.15615200000000	0.00000000000000	0.14075000000000	-14.90341800000000	53.88196500000000	10.13255400000000	0.40033800000000	0.00000000000000	-0.06004700000000	0.00000000000000	30.40729700000000	0.00000000000000	0.00000000000000	6.83805700000000	0.00000000000000	
23.28658100000000	-45.79940700000000	795.63752099999999	65.27180600000000	0.15552700000000	0.00000000000000	0.14063500000000	-15.79111600000000	60.46339700000000	10.97148400000000	0.40300100000000	0.00000000000000	-0.06056300000000	0.00000000000000	30.23642300000000	0.00000000000000	0.00000000000000	7.47421000000000	0.00000000000000	
23.28824100000000	-45.88921600000000	791.65165200000001	64.90716100000000	0.15490600000000	0.00000000000000	0.14051400000000	-16.42744600000000	66.89104399999999	11.68717100000000	0.40551200000000	0.00000000000000	-0.06105300000000	0.00000000000000	30.06417600000000	0.00000000000000	0.00000000000000	8.03944800000000	0.00000000000000	
23.28992700000000	-45.99332200000000	787.54973399999994	64.51594400000000	0.15429000000000	0.00000000000000	0.14038600000000	-16.80639000000000	73.12473600000000	12.27235600000000	0.40788400000000	0.00000000000000	-0.06152100000000	0.00000000000000	29.89079600000000	0.00000000000000	0.00000000000000	8.52763300000000	0.00000000000000	
23.29157600000000	-46.11231800000000	783.33424400000001	64.09840400000000	0.15367800000000	0.00000000000000	0.14025100000000	-16.93364100000000	79.15007900000001	12.72649200000000	0.41013100000000	0.00000000000000	-0.06197000000000	0.00000000000000	29.71651600000000	0.00000000000000	0.00000000000000	8.93697400000000	0.00000000000000	
23.29324800000000	-46.24674000000000	779.00762699999996	63.65483900000000	0.15307000000000	0.00000000000000	0.14010900000000	-16.82465000000000	84.97574899999999	13.05478500000000	0.41226200000000	0.00000000000000	-0.06240300000000	0.00000000000000	29.54156000000000	0.00000000000000	0.00000000000000	9.26947600000000	0.00000000000000	
23.29491200000000	-46.39706600000000	774.57228699999996	63.18558700000000	0.15246700000000	0.00000000000000	0.13996100000000	-16.50220900000000	90.62935299999999	13.26692200000000	0.41428800000000	0.00000000000000	-0.06282200000000	0.00000000000000	29.36614200000000	0.00000000000000	0.00000000000000	9.53018800000000	0.00000000000000	
23.29658200000000	-46.56370900000000	770.03057899999999	62.69103200000000	0.15186800000000	0.00000000000000	0.13980600000000	-15.99384500000000	96.15244900000000	13.37566000000000	0.41621600000000	0.00000000000000	-0.06322900000000	0.00000000000000	29.19046600000000	0.00000000000000	0.00000000000000	9.72631200000000	0.00000000000000	
23.29824600000000	-46.74701300000000	765.38479600000005	62.17159900000000	0.15127400000000	0.00000000000000	0.13964400000000	-15.32926500000000	101.59527700000000	13.39540300000000	0.41805200000000	0.00000000000000	-0.06362500000000	0.00000000000000	29.01472200000000	0.00000000000000	0.00000000000000	9.86630100000000	0.00000000000000	
23.29993000000000	-46.94725300000000	760.63716599999998	61.62775000000000	0.15068300000000	0.00000000000000	0.13947500000000	-14.53806400000000	107.01168199999999	13.34089600000000	0.41980400000000	0.00000000000000	-0.06401200000000	0.00000000000000	28.83908600000000	0.00000000000000	0.00000000000000	9.95900600000000	0.00000000000000	
